<?xml version="1.0" encoding="UTF-8"?>
<svg width="8px" height="8px" viewBox="0 0 8 8" version="1.1" xmlns="http://www.w3.org/2000/svg" xmlns:xlink="http://www.w3.org/1999/xlink">
    <title>icon-mute</title>
    <defs>
        <polygon id="path-1" points="0 0.022088782 4.78676667 0.022088782 4.78676667 7.99996257 0 7.99996257"></polygon>
        <polygon id="path-3" points="0.208 0.0771666667 3 0.0771666667 3 2.8695 0.208 2.8695"></polygon>
    </defs>
    <g id="Symbols" stroke="none" stroke-width="1" fill="none" fill-rule="evenodd">
        <g id="Group">
            <g id="Group-3">
                <mask id="mask-2" fill="white">
                    <use xlink:href="#path-1"></use>
                </mask>
                <g id="Clip-2"></g>
                <path d="M4.37843333,0.0652666667 L1.85076667,1.80093333 C1.76343333,1.86093333 1.58643333,1.89826667 1.43443333,1.89826667 L0.2751,1.89826667 C0.1231,1.89826667 -0.000233333333,2.05026667 -0.000233333333,2.23826667 L-0.000233333333,5.78426667 C-0.000233333333,5.9716 0.1231,6.12393333 0.2751,6.12393333 L1.43443333,6.12393333 C1.58643333,6.12393333 1.76343333,6.16126667 1.85076667,6.22093333 L4.37843333,7.9566 C4.56176667,8.0826 4.78676667,7.91893333 4.78676667,7.65993333 L4.78676667,0.362266667 C4.78676667,0.103266667 4.56176667,-0.0604 4.37843333,0.0652666667" id="Fill-1" fill="#FFFFFF" mask="url(#mask-2)"></path>
            </g>
            <g id="Group-6" transform="translate(5.000000, 2.333333)">
                <mask id="mask-4" fill="white">
                    <use xlink:href="#path-3"></use>
                </mask>
                <g id="Clip-5"></g>
                <path d="M2.14733333,1.47216667 L2.88866667,0.731833333 C2.96133333,0.658833333 3.001,0.561833333 3.00001846,0.458833333 C2.99933333,0.356833333 2.95933333,0.2615 2.888,0.1905 C2.74133333,0.0445 2.493,0.0445 2.34533333,0.1905 L1.60533333,0.930166667 L0.862666667,0.188166667 C0.792666667,0.117833333 0.694,0.0771666667 0.591666667,0.0771666667 L0.591333333,0.0771666667 C0.489,0.0771666667 0.390333333,0.117833333 0.322,0.186166667 C0.248333333,0.258166667 0.208,0.354833333 0.208,0.458833333 C0.208,0.5625 0.248333333,0.659166667 0.320333333,0.729833333 L1.063,1.47216667 L0.408333333,2.12583333 C0.377333333,2.15683333 0.354333333,2.1805 0.336666667,2.19883333 L0.321333333,2.21383333 C0.248333333,2.28616667 0.208,2.38283333 0.208,2.48616667 C0.208,2.58883333 0.248,2.68516667 0.318333333,2.75483333 C0.391,2.82916667 0.484,2.8535 0.591333333,2.8695 C0.694333333,2.8695 0.790666667,2.82916667 0.862333333,2.75683333 L1.60533333,2.0145 L2.34633333,2.7555 C2.49633333,2.90316667 2.73833333,2.9025 2.889,2.75283333 C2.96133333,2.67983333 3.001,2.58316667 3.00001846,2.48016667 C2.99933333,2.3775 2.95933333,2.28183333 2.88766667,2.21183333 L2.14733333,1.47216667 Z" id="Fill-4" fill="#FFFFFF" mask="url(#mask-4)"></path>
            </g>
        </g>
    </g>
</svg>
