<?xml version="1.0" encoding="UTF-8"?>
<!DOCTYPE svg PUBLIC "-//W3C//DTD SVG 1.1//EN" "http://www.w3.org/Graphics/SVG/1.1/DTD/svg11.dtd">
<svg xmlns="http://www.w3.org/2000/svg" version="1.1" width="3464px" height="3464px" style="shape-rendering:geometricPrecision; text-rendering:geometricPrecision; image-rendering:optimizeQuality; fill-rule:evenodd; clip-rule:evenodd" xmlns:xlink="http://www.w3.org/1999/xlink">
<g><path style="opacity:0.093" fill="#121212" d="M 1794.5,308.5 C 1752.5,308.5 1710.5,308.5 1668.5,308.5C 1710.5,305.833 1752.5,305.833 1794.5,308.5 Z"/></g>
<g><path style="opacity:0.501" fill="#424242" d="M 1668.5,308.5 C 1710.5,308.5 1752.5,308.5 1794.5,308.5C 2060.73,320.859 2304.06,400.359 2524.5,547C 2788.48,727.133 2973.98,968.633 3081,1271.5C 3124.71,1400.21 3149.21,1532.55 3154.5,1668.5C 3154.5,1710.5 3154.5,1752.5 3154.5,1794.5C 3143.1,2046.77 3070.6,2279.44 2937,2492.5C 2789.87,2721.79 2594.04,2896.29 2349.5,3016C 2095.35,3136.06 1827.85,3178.9 1547,3144.5C 1380.84,3122.65 1223.67,3073.48 1075.5,2997C 785.938,2843.09 571.771,2617.26 433,2319.5C 333.144,2095.16 292.644,1859.66 311.5,1613C 341.371,1291.11 463.538,1010.61 678,771.5C 839.149,596.184 1032.32,468.017 1257.5,387C 1390.5,340.059 1527.5,313.893 1668.5,308.5 Z"/></g>
<g><path style="opacity:0.78" fill="#b5b5b5" d="M 1386.5,1276.5 C 1385.5,1578 1385.17,1879.67 1385.5,2181.5C 1384.83,2030.67 1384.5,1879.67 1384.5,1728.5C 1384.83,1577.5 1385.17,1426.5 1385.5,1275.5C 1386.11,1275.62 1386.44,1275.96 1386.5,1276.5 Z"/></g>
<g><path style="opacity:1" fill="#fefefe" d="M 1386.5,1276.5 C 1647.31,1427.41 1908.31,1578.07 2169.5,1728.5C 1908.51,1880 1647.17,2031 1385.5,2181.5C 1385.17,1879.67 1385.5,1578 1386.5,1276.5 Z"/></g>
<g><path style="opacity:0.112" fill="#151515" d="M 3154.5,1668.5 C 3155.33,1673.32 3155.83,1678.32 3156,1683.5C 3156.17,1699.33 3156.33,1715.17 3156.5,1731C 3156.72,1752.36 3156.06,1773.52 3154.5,1794.5C 3154.5,1752.5 3154.5,1710.5 3154.5,1668.5 Z"/></g>
</svg>
