<?xml version="1.0" encoding="UTF-8"?>
<!DOCTYPE svg PUBLIC "-//W3C//DTD SVG 1.1//EN" "http://www.w3.org/Graphics/SVG/1.1/DTD/svg11.dtd">
<svg xmlns="http://www.w3.org/2000/svg" version="1.1" width="3464px" height="3464px" style="shape-rendering:geometricPrecision; text-rendering:geometricPrecision; image-rendering:optimizeQuality; fill-rule:evenodd; clip-rule:evenodd" xmlns:xlink="http://www.w3.org/1999/xlink">
<g><path style="opacity:0.505" fill="#414141" d="M 1674.5,366.5 C 2020.04,355.629 2327.04,457.129 2595.5,671C 2791.39,832.074 2933.23,1032.24 3021,1271.5C 3109.15,1523.85 3123.82,1780.51 3065,2041.5C 2998.09,2317.37 2861.25,2550.53 2654.5,2741C 2417.23,2953.74 2138.56,3071.74 1818.5,3095C 1473.19,3112.09 1164.52,3016.25 892.5,2807.5C 686.048,2644.21 537.381,2437.71 446.5,2188C 358.375,1932.88 345.042,1673.55 406.5,1410C 477.629,1127.21 621.962,890.212 839.5,699C 1055,514.324 1305,405.658 1589.5,373C 1617.94,370.102 1646.27,367.935 1674.5,366.5 Z"/></g>
<g><path style="opacity:1" fill="#fefefe" d="M 1284.5,1095.5 C 1650.96,1307.23 2017.3,1519.4 2383.5,1732C 2192.36,1843.07 2000.7,1953.41 1808.5,2063C 1633.27,2164.11 1457.94,2264.94 1282.5,2365.5C 1282.78,1942.17 1283.45,1518.83 1284.5,1095.5 Z"/></g>
</svg>
