<?xml version="1.0" encoding="UTF-8"?>
<!DOCTYPE svg PUBLIC "-//W3C//DTD SVG 1.1//EN" "http://www.w3.org/Graphics/SVG/1.1/DTD/svg11.dtd">
<svg xmlns="http://www.w3.org/2000/svg" version="1.1" width="3464px" height="3464px" style="shape-rendering:geometricPrecision; text-rendering:geometricPrecision; image-rendering:optimizeQuality; fill-rule:evenodd; clip-rule:evenodd" xmlns:xlink="http://www.w3.org/1999/xlink">
<g><path style="opacity:0.501" fill="#424242" d="M 1655.5,20.5 C 2018.6,7.13689 2352.94,97.3036 2658.5,291C 2901.8,449.962 3093.96,656.462 3235,910.5C 3355.6,1133.52 3424.27,1371.52 3441,1624.5C 3459.95,1964.97 3386.29,2283.3 3220,2579.5C 3071.38,2835.89 2870.88,3041.72 2618.5,3197C 2312.8,3379.23 1981.47,3460.57 1624.5,3441C 1302.76,3418.8 1010.09,3316.13 746.5,3133C 502.617,2959.06 315.117,2736.89 184,2466.5C 90.3527,2267.17 36.3527,2057.84 22,1838.5C 3.06776,1497.95 76.7344,1179.62 243,883.5C 391.625,627.111 592.125,421.277 844.5,266C 1041.14,147.821 1253.14,71.488 1480.5,37C 1507.79,33.2602 1535.12,29.9268 1562.5,27C 1593.65,24.6373 1624.65,22.4706 1655.5,20.5 Z"/></g>
<g><path style="opacity:0.953" fill="#f4f4f4" d="M 1470.5,2091.5 C 1468.5,2045.18 1467.84,1998.51 1468.5,1951.5C 1468.58,1759.16 1469.24,1566.83 1470.5,1374.5C 1677.03,1494.57 1883.37,1614.24 2089.5,1733.5C 2090.39,1734.32 2090.72,1735.32 2090.5,1736.5C 2086.44,1738.02 2082.44,1739.85 2078.5,1742C 1875.85,1858.8 1673.18,1975.3 1470.5,2091.5 Z"/></g>
<g><path style="opacity:0.798" fill="#909090" d="M 1468.5,1951.5 C 1467.84,1998.51 1468.5,2045.18 1470.5,2091.5C 1469.79,2092.4 1468.79,2092.74 1467.5,2092.5C 1467.17,2045.33 1467.5,1998.33 1468.5,1951.5 Z"/></g>
</svg>
